<svg xmlns="http://www.w3.org/2000/svg" width="31.998" height="27.019" viewBox="0 0 31.998 27.019">
  <path id="car_icon" data-name="car icon" d="M23.421,27.02h-15L2.445,12.393H1.6a1.688,1.688,0,0,1,0-3.372H11.651l0,.005v.023a3.293,3.293,0,0,0,3.19,3.38,3.293,3.293,0,0,0,3.191-3.38V9.021H30.391a1.688,1.688,0,0,1,0,3.372h-1L23.422,27.019h0ZM19.869,15.609v7.03a1,1,0,0,0,1,1h.47a1,1,0,0,0,1-1v-7.03a1,1,0,0,0-1-1h-.47A1,1,0,0,0,19.869,15.609Zm-5.151,0v7.03a1,1,0,0,0,1,1h.47a1,1,0,0,0,1-1v-7.03a1,1,0,0,0-1-1h-.47A1,1,0,0,0,14.719,15.609Zm-5.189,0v7.03a1,1,0,0,0,1,1h.44a1,1,0,0,0,1-1v-7.03a1,1,0,0,0-1-1h-.44A1,1,0,0,0,9.529,15.609Zm4.944-5.667a1.632,1.632,0,0,1-.5-2.094L17.645.767A1.3,1.3,0,0,1,19.526.206a1.629,1.629,0,0,1,.5,2.093L16.357,9.38a1.359,1.359,0,0,1-1.2.767A1.267,1.267,0,0,1,14.473,9.941Z" transform="translate(0 0)" fill="#824137"/>
</svg>
