<svg id="fb_icon" data-name="fb icon" xmlns="http://www.w3.org/2000/svg" width="18" height="17.46" viewBox="0 0 18 17.46">
  <ellipse id="Ellipse_5" data-name="Ellipse 5" cx="9" cy="8.73" rx="9" ry="8.73" fill="#001a63"/>
  <path id="Forma_1_copy" data-name="Forma 1 copy" d="M14177.732,1438.5l-1.728,0c-1.94,0-3.2,1.125-3.2,2.866v1.321h-1.736a.257.257,0,0,0-.271.239v1.914a.256.256,0,0,0,.271.237h1.735v4.831a.258.258,0,0,0,.271.238h2.268a.256.256,0,0,0,.271-.238v-4.831h2.031a.256.256,0,0,0,.271-.237l0-1.914a.224.224,0,0,0-.08-.168.29.29,0,0,0-.191-.07h-2.033v-1.12c0-.538.146-.812.95-.812h1.162a.256.256,0,0,0,.272-.238v-1.778A.256.256,0,0,0,14177.732,1438.5Z" transform="translate(-14165.402 -1435.586)" fill="#fff"/>
</svg>
