<svg xmlns="http://www.w3.org/2000/svg" width="72.074" height="69.912" viewBox="0 0 72.074 69.912">
  <g id="Group_7153" data-name="Group 7153" transform="translate(-1113.764 -1523)">
    <ellipse id="Ellipse_5_copy_2" data-name="Ellipse 5 copy 2" cx="36.037" cy="34.956" rx="36.037" ry="34.956" transform="translate(1113.764 1523)" fill="#c50000"/>
    <path id="Icon_simple-google" data-name="Icon simple-google" d="M21.357,18v7.2H33.266c-.481,3.088-3.6,9.053-11.909,9.053a13.255,13.255,0,0,1,0-26.506A11.818,11.818,0,0,1,29.73,10.98l5.694-5.491A20.147,20.147,0,0,0,21.357,0a21,21,0,1,0,0,41.994c12.119,0,20.157-8.52,20.157-20.518A19.131,19.131,0,0,0,41.184,18Z" transform="translate(1128.867 1536.93)" fill="#fff"/>
  </g>
</svg>
