<svg id="insta_icon" data-name="insta icon" xmlns="http://www.w3.org/2000/svg" xmlns:xlink="http://www.w3.org/1999/xlink" width="18" height="17.46" viewBox="0 0 18 17.46">
  <defs>
    <linearGradient id="linear-gradient" x1="0.74" y1="0.039" x2="0.062" y2="1.113" gradientUnits="objectBoundingBox">
      <stop offset="0" stop-color="#fc49a9"/>
      <stop offset="1" stop-color="#e39732"/>
    </linearGradient>
  </defs>
  <ellipse id="Ellipse_5_copy_2" data-name="Ellipse 5 copy 2" cx="9" cy="8.73" rx="9" ry="8.73" fill="url(#linear-gradient)"/>
  <path id="Combined_shape_417" data-name="Combined shape 417" d="M9.417,10.488H1.385a1.342,1.342,0,0,1-.976-.4A1.27,1.27,0,0,1,0,9.143v-7.8A1.27,1.27,0,0,1,.409.4,1.355,1.355,0,0,1,1.385,0H9.417A1.356,1.356,0,0,1,10.4.4a1.282,1.282,0,0,1,.405.947v7.8a1.282,1.282,0,0,1-.405.947A1.343,1.343,0,0,1,9.417,10.488ZM1.2,4.438V8.861a.419.419,0,0,0,.121.3.43.43,0,0,0,.306.117h7.52a.415.415,0,0,0,.3-.117.382.382,0,0,0,.129-.3V4.438h-.95a2.837,2.837,0,0,1,.142.9,2.931,2.931,0,0,1-.451,1.587A3.231,3.231,0,0,1,7.1,8.071a3.5,3.5,0,0,1-1.69.423A3.351,3.351,0,0,1,3.039,7.57a2.971,2.971,0,0,1-.985-2.235,2.853,2.853,0,0,1,.142-.9Zm4.2-1.256a2.158,2.158,0,0,0-1.527.6,1.954,1.954,0,0,0,0,2.886,2.158,2.158,0,0,0,1.527.6,2.187,2.187,0,0,0,1.541-.6,1.962,1.962,0,0,0,0-2.886A2.187,2.187,0,0,0,5.406,3.182ZM7.868,1.171a.479.479,0,0,0-.345.139.454.454,0,0,0-.139.331V2.765a.447.447,0,0,0,.139.334.479.479,0,0,0,.345.139H9.093A.472.472,0,0,0,9.438,3.1a.445.445,0,0,0,.14-.334V1.641a.453.453,0,0,0-.14-.331.472.472,0,0,0-.345-.139Z" transform="translate(3.599 3.479)" fill="#fff"/>
</svg>
