<svg xmlns="http://www.w3.org/2000/svg" width="22.094" height="17.951" viewBox="0 0 22.094 17.951">
  <path id="Icon_awesome-list" data-name="Icon awesome-list" d="M3.452,17.184H.69a.69.69,0,0,0-.69.69v2.762a.69.69,0,0,0,.69.69H3.452a.69.69,0,0,0,.69-.69V17.874A.69.69,0,0,0,3.452,17.184Zm0-13.809H.69a.69.69,0,0,0-.69.69V6.827a.69.69,0,0,0,.69.69H3.452a.69.69,0,0,0,.69-.69V4.065A.69.69,0,0,0,3.452,3.375Zm0,6.9H.69a.69.69,0,0,0-.69.69v2.762a.69.69,0,0,0,.69.69H3.452a.69.69,0,0,0,.69-.69V10.97A.69.69,0,0,0,3.452,10.279ZM21.4,17.874H7.595a.69.69,0,0,0-.69.69v1.381a.69.69,0,0,0,.69.69H21.4a.69.69,0,0,0,.69-.69V18.564A.69.69,0,0,0,21.4,17.874Zm0-13.809H7.595a.69.69,0,0,0-.69.69V6.137a.69.69,0,0,0,.69.69H21.4a.69.69,0,0,0,.69-.69V4.756A.69.69,0,0,0,21.4,4.065Zm0,6.9H7.595a.69.69,0,0,0-.69.69v1.381a.69.69,0,0,0,.69.69H21.4a.69.69,0,0,0,.69-.69V11.66A.69.69,0,0,0,21.4,10.97Z" transform="translate(0 -3.375)" fill="#824137"/>
</svg>
