<svg id="Icon_ionic-md-speedometer" data-name="Icon ionic-md-speedometer" xmlns="http://www.w3.org/2000/svg" width="67.943" height="67.943" viewBox="0 0 67.943 67.943">
  <path id="Path_4584" data-name="Path 4584" d="M9,29.25H50.811v7.84H9Z" transform="translate(4.066 30.853)" fill="#824137"/>
  <path id="Path_4585" data-name="Path 4585" d="M25.394,30.621a5.226,5.226,0,1,0-1.437-10.257L13.063,12.41l-.653.572L20.4,23.876a5.1,5.1,0,0,0-.229,1.519A5.221,5.221,0,0,0,25.394,30.621Z" transform="translate(8.577 8.577)" fill="#824137"/>
  <path id="Path_4586" data-name="Path 4586" d="M37.347,3.375A33.964,33.964,0,0,0,10.578,58.252h9.6l.653-.653,3.609-3.609-3.74-3.74-3.609,3.593A26.033,26.033,0,0,1,11.345,39.96h5.1V34.733h-5.1a26.033,26.033,0,0,1,5.749-13.883L20.7,24.444l3.74-3.74-3.593-3.609a26.033,26.033,0,0,1,13.883-5.749v5.1H39.96v-5.1a26.033,26.033,0,0,1,13.883,5.749L50.249,20.7l3.74,3.74L57.6,20.851a26.033,26.033,0,0,1,5.749,13.883h-5.1V39.96h5.1A26.033,26.033,0,0,1,57.6,53.842l-3.609-3.593-3.74,3.74L53.859,57.6l.653.653h9.6A33.964,33.964,0,0,0,37.347,3.375Z" transform="translate(-3.375 -3.375)" fill="#824137"/>
</svg>
