<svg id="twt_icon" data-name="twt icon" xmlns="http://www.w3.org/2000/svg" width="18" height="17.46" viewBox="0 0 18 17.46">
  <ellipse id="Ellipse_5_copy" data-name="Ellipse 5 copy" cx="9" cy="8.73" rx="9" ry="8.73" fill="#31d1eb"/>
  <path id="Forma_1_copy_2" data-name="Forma 1 copy 2" d="M14182.226,1502.065a5.956,5.956,0,0,1-1.719.572,2.892,2.892,0,0,0-1.975-.745,2.549,2.549,0,0,0-2.7,2.357,2.164,2.164,0,0,0,.069.536,8.113,8.113,0,0,1-5.575-2.462,2.12,2.12,0,0,0-.364,1.185,2.3,2.3,0,0,0,1.2,1.962,3,3,0,0,1-1.225-.3v.03a2.467,2.467,0,0,0,2.169,2.311,3.05,3.05,0,0,1-1.222.04,2.69,2.69,0,0,0,2.526,1.638,5.96,5.96,0,0,1-3.359,1.007c-.219,0-.435-.011-.646-.032a8.5,8.5,0,0,0,4.146,1.059c4.976,0,7.7-3.592,7.7-6.706l-.009-.305a5.1,5.1,0,0,0,1.352-1.218,6.067,6.067,0,0,1-1.553.371A2.454,2.454,0,0,0,14182.226,1502.065Z" transform="translate(-14167 -1497.25)" fill="#fff"/>
</svg>
